<?xml version="1.0" standalone="no"?>
<!DOCTYPE svg PUBLIC "-//W3C//DTD SVG 20010904//EN"
 "http://www.w3.org/TR/2001/REC-SVG-20010904/DTD/svg10.dtd">
<svg version="1.0" xmlns="http://www.w3.org/2000/svg"
 width="1116.000000pt" height="239.000000pt" viewBox="0 0 1116.000000 239.000000"
 preserveAspectRatio="xMidYMid meet">

<g transform="translate(0.000000,239.000000) scale(0.100000,-0.100000)"
fill="#000000" stroke="none">
<path d="M8510 1890 c0 -216 2 -250 15 -250 12 0 15 19 15 115 0 126 9 157 56
194 35 27 87 27 112 0 27 -28 32 -62 32 -195 0 -95 3 -114 15 -114 13 0 15 20
15 123 0 189 -22 237 -108 237 -38 0 -50 -5 -83 -39 l-39 -39 0 109 c0 90 -3
109 -15 109 -13 0 -15 -34 -15 -250z"/>
<path d="M8950 1890 c0 -216 2 -250 15 -250 10 0 15 10 15 32 0 31 0 32 15 11
8 -11 33 -28 55 -37 129 -51 246 116 181 259 -49 109 -159 128 -233 40 -17
-19 -17 -15 -18 88 0 88 -3 107 -15 107 -13 0 -15 -34 -15 -250z m209 64 c30
-21 60 -89 61 -134 0 -20 -10 -56 -22 -80 -44 -87 -133 -100 -193 -29 -22 27
-25 40 -25 106 0 74 1 76 39 114 32 32 46 39 78 39 21 0 49 -7 62 -16z"/>
<path d="M10850 2034 l0 -106 -40 36 c-33 29 -48 36 -83 36 -87 0 -147 -74
-147 -182 0 -79 32 -136 93 -166 56 -29 93 -24 142 19 l33 29 6 -30 c3 -19 12
-30 22 -30 12 0 15 6 10 23 -3 12 -6 124 -6 250 0 195 -2 227 -15 227 -12 0
-15 -18 -15 -106z m-38 -104 l40 -40 -3 -79 c-4 -67 -8 -83 -28 -105 -38 -41
-84 -51 -128 -29 -50 25 -75 62 -81 121 -9 99 42 172 120 172 34 0 47 -7 80
-40z"/>
<path d="M7180 1885 l0 -245 90 0 c97 0 147 14 188 53 92 86 94 288 3 378 -45
45 -91 59 -198 59 l-83 0 0 -245z m233 187 c54 -34 82 -99 82 -192 0 -143 -67
-210 -212 -210 l-73 0 0 216 0 217 83 -5 c64 -3 92 -10 120 -26z"/>
<path d="M1640 1865 l0 -175 185 0 185 0 0 175 0 175 -185 0 -185 0 0 -175z"/>
<path d="M3480 1080 l0 -960 185 0 185 0 0 413 0 412 29 51 c110 190 351 273
477 162 87 -76 94 -125 94 -630 l0 -408 186 0 185 0 -4 503 c-3 427 -6 511
-20 565 -64 242 -212 345 -475 329 -182 -11 -326 -84 -439 -222 l-33 -40 0
393 0 392 -185 0 -185 0 0 -960z"/>
<path d="M6492 1178 l3 -863 30 -53 c35 -64 71 -97 145 -130 78 -36 218 -41
356 -13 138 28 177 46 171 74 -3 12 -13 62 -21 112 -27 150 -19 137 -69 118
-23 -8 -74 -16 -114 -17 -66 -1 -75 1 -99 25 -15 16 -30 45 -35 70 -4 24 -8
380 -9 792 l0 747 -180 0 -180 0 2 -862z"/>
<path d="M7726 1976 c-46 -27 -33 -45 15 -20 56 28 126 17 147 -24 5 -9 12
-34 16 -55 l7 -38 -69 6 c-85 9 -135 -11 -160 -61 -13 -28 -13 -40 -3 -74 23
-77 112 -99 191 -46 38 25 40 25 40 6 0 -21 25 -38 38 -26 3 4 1 16 -6 26 -8
13 -12 63 -12 141 l0 121 -34 34 c-29 29 -41 34 -82 34 -34 0 -61 -8 -88 -24z
m167 -168 c38 -19 8 -106 -46 -131 -19 -9 -44 -17 -56 -17 -72 0 -116 77 -73
130 29 35 122 45 175 18z"/>
<path d="M8139 1971 c-20 -21 -29 -39 -29 -63 0 -51 23 -74 97 -98 38 -13 76
-29 86 -38 22 -20 22 -54 -2 -83 -27 -34 -106 -34 -151 0 -40 29 -61 15 -26
-18 75 -71 226 -31 226 60 0 57 -18 72 -129 110 -30 11 -59 25 -63 32 -14 22
-8 64 12 82 26 23 99 24 134 2 31 -21 36 -21 36 -2 0 23 -54 45 -110 45 -44 0
-56 -5 -81 -29z"/>
<path d="M9464 1968 c-46 -41 -64 -83 -64 -151 0 -77 32 -136 92 -165 62 -31
109 -23 160 27 62 63 73 154 27 242 -26 52 -71 79 -131 79 -39 0 -54 -6 -84
-32z m159 -28 c82 -72 66 -220 -29 -265 -44 -21 -83 -13 -116 23 -38 40 -48
65 -48 117 0 131 107 200 193 125z"/>
<path d="M9906 1976 c-46 -27 -33 -45 15 -20 56 28 126 17 147 -24 5 -9 12
-34 16 -55 l7 -38 -69 6 c-85 9 -135 -11 -160 -61 -13 -28 -13 -40 -3 -74 23
-77 112 -99 191 -46 38 25 40 25 40 6 0 -21 25 -38 38 -26 3 4 1 16 -6 26 -8
13 -12 63 -12 141 l0 121 -34 34 c-29 29 -41 34 -82 34 -34 0 -61 -8 -88 -24z
m167 -168 c38 -19 8 -106 -46 -131 -19 -9 -44 -17 -56 -17 -72 0 -116 77 -73
130 29 35 122 45 175 18z"/>
<path d="M10300 1820 c0 -153 2 -180 15 -180 12 0 15 20 15 118 0 138 14 174
80 199 22 9 40 23 40 31 0 24 -52 5 -87 -33 l-33 -35 0 40 c0 29 -4 40 -15 40
-13 0 -15 -27 -15 -180z"/>
<path d="M210 1055 l0 -935 190 0 190 0 0 385 0 385 390 0 390 0 0 150 0 150
-390 0 -390 0 0 240 0 240 470 0 471 0 -3 158 -3 157 -657 3 -658 2 0 -935z"/>
<path d="M5050 1055 l0 -935 190 0 190 0 0 385 0 385 390 0 390 0 0 150 0 150
-390 0 -390 0 0 240 0 240 470 0 471 0 -3 158 -3 157 -657 3 -658 2 0 -935z"/>
<path d="M2570 1499 c-159 -41 -279 -129 -336 -246 -26 -53 -29 -68 -29 -168
0 -129 13 -163 90 -234 72 -66 183 -112 528 -217 113 -34 157 -71 157 -132 0
-159 -293 -192 -552 -62 -44 22 -102 56 -129 75 l-48 36 -14 -23 c-8 -13 -38
-63 -66 -112 -60 -102 -61 -98 42 -168 261 -177 708 -205 936 -58 138 88 207
241 182 399 -25 157 -128 238 -416 326 -331 101 -364 118 -372 195 -9 95 56
142 202 148 135 6 254 -32 382 -119 23 -16 44 -29 46 -29 2 0 37 50 77 111
l74 110 -30 24 c-86 69 -207 125 -323 150 -105 22 -306 19 -401 -6z"/>
<path d="M7775 1513 c-302 -47 -524 -246 -596 -534 -28 -109 -23 -289 11 -389
82 -242 256 -405 506 -471 102 -27 304 -30 413 -6 92 21 218 79 291 135 190
147 294 405 260 652 -23 172 -81 290 -200 411 -61 61 -94 85 -170 122 -52 26
-122 54 -155 63 -59 16 -297 27 -360 17z m241 -308 c151 -45 257 -184 271
-357 27 -317 -256 -541 -531 -420 -88 39 -160 124 -196 233 -29 85 -25 234 9
321 24 63 100 153 157 189 79 48 196 62 290 34z"/>
<path d="M1640 810 l0 -690 185 0 185 0 0 690 0 690 -185 0 -185 0 0 -690z"/>
<path d="M8644 1483 c4 -10 138 -321 299 -690 l292 -673 156 0 155 0 114 286
c63 157 117 287 121 289 3 3 60 -126 125 -285 l118 -290 155 2 156 3 297 680
c164 374 298 683 298 688 0 4 -78 7 -172 7 l-173 0 -210 -515 c-115 -283 -213
-515 -216 -515 -3 0 -42 98 -88 218 l-82 219 120 283 c67 156 121 290 121 297
0 10 -32 13 -145 13 l-145 0 -15 -32 c-8 -18 -44 -114 -79 -212 l-63 -179 -16
44 c-9 24 -43 118 -75 209 l-58 165 -152 3 c-84 1 -152 0 -152 -2 0 -3 54
-132 121 -288 66 -156 121 -290 122 -298 1 -18 -155 -440 -163 -440 -3 0 -100
231 -216 513 l-210 512 -173 3 c-162 2 -173 1 -167 -15z"/>
</g>
</svg>
